<svg width="12" height="11" viewBox="0 0 12 11" fill="none" xmlns="http://www.w3.org/2000/svg">
<path d="M11.9628 1.6941C12.0088 1.63852 12.0125 1.55927 11.9719 1.49964C11.9314 1.43999 11.8563 1.41419 11.7877 1.43653C11.4695 1.54028 11.1381 1.61402 10.7961 1.65554C11.2039 1.40884 11.5403 1.05386 11.7649 0.629881C11.7978 0.567859 11.787 0.491724 11.7382 0.441287C11.6894 0.390823 11.6137 0.377534 11.5506 0.408239C11.1539 0.60128 10.7296 0.746014 10.2849 0.834293C9.80681 0.320866 9.12627 0 8.37267 0C6.92636 0 5.75314 1.18296 5.75314 2.64237C5.75314 2.8491 5.77639 3.05061 5.8214 3.24445C3.8414 3.14402 2.06501 2.26459 0.787907 0.903531C0.699629 0.809421 0.567809 0.769635 0.442222 0.799115C0.316608 0.828594 0.216132 0.922838 0.179036 1.04645C0.106363 1.28881 0.0671634 1.5459 0.0671634 1.81204C0.0671634 2.72931 0.4729 3.53791 1.17564 4.01174C0.985902 4.00561 0.721066 3.94681 0.484564 3.88319C0.352638 3.8477 0.211765 3.88495 0.114698 3.98114C0.017658 4.0773 -0.0206361 4.21772 0.0135304 4.34999C0.268221 5.33592 1.09756 6.1042 2.09089 6.30549C1.87047 6.36608 1.66793 6.39822 1.42887 6.39822C1.42879 6.39822 1.42871 6.39822 1.42863 6.39822C1.32152 6.39822 1.22243 6.45513 1.1685 6.54767C1.11458 6.64023 1.11407 6.75434 1.16683 6.84757C1.61144 7.63369 2.44827 8.16842 3.40424 8.18659C2.50765 8.89492 1.38139 9.31703 0.15459 9.31703C0.153844 9.31703 0.153072 9.31703 0.152326 9.31703C0.0823958 9.317 0.0214395 9.36462 0.00452937 9.43247C-0.0123807 9.50035 0.0191493 9.57095 0.0809045 9.60378C1.11631 10.1542 2.29602 10.4674 3.54767 10.4674C8.36567 10.4674 11.001 6.44056 11.001 2.94896C11.001 2.83397 10.9985 2.72087 10.9935 2.60714C11.3528 2.34504 11.679 2.03757 11.9628 1.6941Z" fill="#FC0EE4"/>
</svg>
