<svg width="16" height="16" viewBox="0 0 16 16" fill="none" xmlns="http://www.w3.org/2000/svg">
<path d="M13.9628 3.94213C14.0088 3.87842 14.0125 3.78756 13.9719 3.71921C13.9314 3.65082 13.8563 3.62124 13.7877 3.64686C13.4695 3.7658 13.1381 3.85033 12.7961 3.89793C13.2039 3.61511 13.5403 3.20815 13.7649 2.7221C13.7978 2.651 13.787 2.56372 13.7382 2.5059C13.6894 2.44804 13.6137 2.43281 13.5506 2.46801C13.1539 2.68931 12.7296 2.85524 12.2849 2.95644C11.8068 2.36784 11.1263 2 10.3727 2C8.92636 2 7.75314 3.35616 7.75314 5.02924C7.75314 5.26624 7.77639 5.49725 7.8214 5.71947C5.8414 5.60434 4.06501 4.59615 2.78791 3.03582C2.69963 2.92793 2.56781 2.88232 2.44222 2.91611C2.31661 2.94991 2.21613 3.05795 2.17904 3.19967C2.10636 3.47751 2.06716 3.77224 2.06716 4.07735C2.06716 5.12892 2.4729 6.0559 3.17564 6.5991C2.9859 6.59208 2.72107 6.52467 2.48456 6.45174C2.35264 6.41104 2.21176 6.45375 2.1147 6.56402C2.01766 6.67426 1.97936 6.83524 2.01353 6.98688C2.26822 8.11715 3.09756 8.99792 4.09089 9.22869C3.87047 9.29814 3.66793 9.33499 3.42887 9.33499C3.42879 9.33499 3.42871 9.33499 3.42863 9.33499C3.32152 9.33499 3.22243 9.40023 3.1685 9.50632C3.11458 9.61243 3.11407 9.74325 3.16683 9.85013C3.61144 10.7513 4.44827 11.3644 5.40424 11.3852C4.50765 12.1972 3.38139 12.6811 2.15459 12.6811C2.15384 12.6811 2.15307 12.6811 2.15233 12.6811C2.0824 12.6811 2.02144 12.7357 2.00453 12.8135C1.98762 12.8913 2.01915 12.9722 2.0809 13.0099C3.11631 13.6409 4.29602 14 5.54767 14C10.3657 14 13.001 9.38353 13.001 5.38072C13.001 5.2489 12.9985 5.11924 12.9935 4.98885C13.3528 4.68838 13.679 4.3359 13.9628 3.94213Z" fill="#FC0EE4"/>
</svg>
